<?xml version="1.0" encoding="utf-8"?>
<!-- Generator: Adobe Illustrator 21.0.0, SVG Export Plug-In . SVG Version: 6.00 Build 0)  -->
<svg version="1.1" id="Camada_1" xmlns="http://www.w3.org/2000/svg" xmlns:xlink="http://www.w3.org/1999/xlink" x="0px" y="0px"
	 viewBox="0 0 1080 1080" style="enable-background:new 0 0 1080 1080;" xml:space="preserve">
<style type="text/css">
	.st0{fill:#FFFFFF;}
</style>
<g>
	<path class="st0" d="M921.7,601.2V185.4c0-14-11.3-25.3-25.3-25.3H768v-27c0-14-11.3-25.3-25.3-25.3S717.3,119,717.3,133v27H616
		v-27c0-14-11.3-25.3-25.3-25.3S565.3,119,565.3,133v27H464v-27c0-14-11.3-25.3-25.3-25.3S413.3,119,413.3,133v27H312v-27
		c0-14-11.3-25.3-25.3-25.3S261.4,119,261.4,133v27H133c-14,0-25.3,11.3-25.3,25.3v660.3c0,14,11.3,25.3,25.3,25.3h421.9
		c41,61.1,110.6,101.3,189.5,101.3c125.7,0,228-102.3,228-228C972.3,690.2,953.3,640.4,921.7,601.2z M261.4,210.7V236
		c0,14,11.3,25.3,25.3,25.3S312,250,312,236v-25.3h101.3V236c0,14,11.3,25.3,25.3,25.3S464,250,464,236v-25.3h101.3V236
		c0,14,11.3,25.3,25.3,25.3S616,250,616,236v-25.3h101.3V236c0,14,11.3,25.3,25.3,25.3S768,250,768,236v-25.3h103V312H158.3V210.7
		H261.4z M158.3,820.3V362.7H871v192.2c-36.2-24.3-79.8-38.5-126.7-38.5c-80,0-150.6,41.5-191.3,104c-3.4-1.7-7.3-2.7-11.4-2.7H491
		c-14,0-25.3,11.3-25.3,25.3s11.3,25.3,25.3,25.3h38.4c-5.7,16.1-9.7,33.1-11.6,50.7H491c-14,0-25.3,11.3-25.3,25.3
		s11.3,25.3,25.3,25.3h26.7c1.9,17.6,5.9,34.5,11.6,50.7H158.3z M744.3,921.7c-97.8,0-177.3-79.5-177.3-177.3S646.6,567,744.3,567
		s177.3,79.5,177.3,177.3S842.1,921.7,744.3,921.7z"/>
	<path class="st0" d="M845.7,719h-76v-76c0-14-11.3-25.3-25.3-25.3S719,629,719,643v101.3c0,14,11.3,25.3,25.3,25.3h101.3
		c14,0,25.3-11.3,25.3-25.3S859.7,719,845.7,719z"/>
	<path class="st0" d="M337.3,415h-50.7c-14,0-25.3,11.3-25.3,25.3s11.3,25.3,25.3,25.3h50.7c14,0,25.3-11.3,25.3-25.3
		S351.3,415,337.3,415z"/>
	<path class="st0" d="M337.3,516.4h-50.7c-14,0-25.3,11.3-25.3,25.3s11.3,25.3,25.3,25.3h50.7c14,0,25.3-11.3,25.3-25.3
		S351.3,516.4,337.3,516.4z"/>
	<path class="st0" d="M337.3,617.7h-50.7c-14,0-25.3,11.3-25.3,25.3s11.3,25.3,25.3,25.3h50.7c14,0,25.3-11.3,25.3-25.3
		S351.3,617.7,337.3,617.7z"/>
	<path class="st0" d="M491,465.7h50.7c14,0,25.3-11.3,25.3-25.3S555.7,415,541.7,415H491c-14,0-25.3,11.3-25.3,25.3
		S477,465.7,491,465.7z"/>
	<path class="st0" d="M491,567h50.7c14,0,25.3-11.3,25.3-25.3s-11.3-25.3-25.3-25.3H491c-14,0-25.3,11.3-25.3,25.3S477,567,491,567z
		"/>
	<path class="st0" d="M337.3,719h-50.7c-14,0-25.3,11.3-25.3,25.3s11.3,25.3,25.3,25.3h50.7c14,0,25.3-11.3,25.3-25.3
		S351.3,719,337.3,719z"/>
	<path class="st0" d="M693.7,465.7h50.7c14,0,25.3-11.3,25.3-25.3S758.3,415,744.3,415h-50.7c-14,0-25.3,11.3-25.3,25.3
		S679.7,465.7,693.7,465.7z"/>
</g>
</svg>
