<?xml version="1.0" encoding="utf-8"?>
<!-- Generator: Adobe Illustrator 21.0.0, SVG Export Plug-In . SVG Version: 6.00 Build 0)  -->
<svg version="1.1" id="Camada_1" xmlns="http://www.w3.org/2000/svg" xmlns:xlink="http://www.w3.org/1999/xlink" x="0px" y="0px"
	 viewBox="0 0 1080 1080" style="enable-background:new 0 0 1080 1080;" xml:space="preserve">
<style type="text/css">
	.st0{fill:#FFFFFF;}
</style>
<g>
	<path class="st0" d="M449.7,480.4c0,15.2-12.4,27.6-27.6,27.6c-15.2,0-27.6-12.3-27.6-27.6c0-15.2,12.3-27.6,27.6-27.6
		C437.3,452.8,449.7,465.1,449.7,480.4z"/>
	<path class="st0" d="M850.5,275.5h-75.8v-46.3c0-88.7-71.7-160.5-160.5-160.5H230c-88.7,0-160.5,71.7-160.5,160.5v517
		c0,23.1,27,36.4,45.2,21.2l169.6-141.3h21.5v75.8c0,88.7,71.7,160.5,160.5,160.5h329.8l169.6,141.3c5.1,4.2,11.3,6.4,17.7,6.4
		c15.2,0,27.6-12.3,27.6-27.6V436C1011,347.4,939.3,275.5,850.5,275.5z M274.3,571c-6.5,0-12.7,2.3-17.7,6.4l-132,110V229.2
		c0-58.2,47.1-105.4,105.4-105.4h384.1c58.2,0,105.4,47.1,105.4,105.4v236.4c0,58.1-47.3,105.4-105.4,105.4H274.3z M955.8,923.7
		l-132-110c-5-4.1-11.2-6.4-17.7-6.4H466.4c-28.1,0-54.6-11-74.5-30.9C372,756.6,361,730.1,361,701.9v-75.8h253.1
		c34.5,0,66.5-10.9,92.7-29.5h128.9c15.2,0,27.6-12.3,27.6-27.6c0-15.2-12.3-27.6-27.6-27.6h-80.1c10.2-19,16.8-40.4,18.6-63h61.6
		c15.2,0,27.6-12.3,27.6-27.6c0-15.2-12.3-27.6-27.6-27.6h-61v-92.6h75.8c28.2,0,54.6,11,74.5,30.9c19.9,19.9,30.9,46.4,30.9,74.5
		V923.7z"/>
	<path class="st0" d="M375.8,288.3c0-12.4,4.8-24,13.5-32.7c8.7-8.7,20.3-13.5,32.7-13.5c25.5,0,46.3,20.8,46.3,46.3
		c0,25.5-20.8,46.3-46.3,46.3c-15.2,0-27.6,12.3-27.6,27.6v29.5c0,15.2,12.3,27.6,27.6,27.6c15.2,0,27.6-12.4,27.6-27.6V386
		c42.6-12,73.9-51.3,73.9-97.6c0-55.9-45.5-101.4-101.5-101.4c-27.1,0-52.6,10.6-71.7,29.7c-19.2,19.2-29.7,44.6-29.7,71.7v0
		c0,15.2,12.3,27.6,27.6,27.6C363.4,315.9,375.8,303.5,375.8,288.3z"/>
	<path class="st0" d="M835.7,659.6H481.2c-15.2,0-27.6,12.4-27.6,27.6c0,15.2,12.3,27.6,27.6,27.6h354.5c15.2,0,27.6-12.3,27.6-27.6
		C863.3,671.9,850.9,659.6,835.7,659.6z"/>
</g>
</svg>
