<?xml version="1.0" encoding="utf-8"?>
<!-- Generator: Adobe Illustrator 21.0.0, SVG Export Plug-In . SVG Version: 6.00 Build 0)  -->
<svg version="1.1" id="Camada_1" xmlns="http://www.w3.org/2000/svg" xmlns:xlink="http://www.w3.org/1999/xlink" x="0px" y="0px"
	 viewBox="0 0 1080 1080" style="enable-background:new 0 0 1080 1080;" xml:space="preserve">
<style type="text/css">
	.st0{fill:#9A1334;}
</style>
<g>
	<path class="st0" d="M952.1,312.7c-42.6-72.9-100.3-130.7-173.2-173.2C706,96.9,626.4,75.7,540,75.7c-86.4,0-166,21.3-238.9,63.8
		c-72.9,42.6-130.7,100.3-173.2,173.2C85.3,385.6,64,465.3,64,551.6c0,103.7,30.3,197,90.8,279.8c60.5,82.8,138.7,140.2,234.6,172
		c11.2,2.1,19.4,0.6,24.8-4.3c5.4-5,8.1-11.2,8.1-18.6c0-1.2-0.1-12.4-0.3-33.5c-0.2-21.1-0.3-39.5-0.3-55.1l-14.3,2.5
		c-9.1,1.7-20.6,2.4-34.4,2.2c-13.8-0.2-28.2-1.6-43.1-4.3c-14.9-2.7-28.7-8.9-41.5-18.6c-12.8-9.7-21.9-22.4-27.3-38.1l-6.2-14.3
		c-4.1-9.5-10.6-20-19.5-31.6c-8.9-11.6-17.9-19.4-27-23.5l-4.3-3.1c-2.9-2.1-5.6-4.6-8.1-7.4c-2.5-2.9-4.3-5.8-5.6-8.7
		c-1.2-2.9-0.2-5.3,3.1-7.1c3.3-1.9,9.3-2.8,18-2.8l12.4,1.9c8.3,1.7,18.5,6.6,30.7,14.9c12.2,8.3,22.2,19,30.1,32.2
		c9.5,16.9,21,29.9,34.4,38.7c13.4,8.9,27,13.3,40.6,13.3s25.4-1,35.3-3.1c9.9-2.1,19.2-5.2,27.9-9.3c3.7-27.7,13.8-49,30.4-63.8
		c-23.5-2.5-44.7-6.2-63.5-11.2c-18.8-5-38.2-13-58.3-24.2c-20-11.2-36.7-25-49.9-41.5c-13.2-16.5-24.1-38.2-32.5-65.1
		c-8.5-26.9-12.7-57.8-12.7-93c0-50,16.3-92.6,49-127.7c-15.3-37.6-13.8-79.7,4.3-126.4c12-3.7,29.8-0.9,53.3,8.4
		c23.6,9.3,40.8,17.3,51.8,23.9c11,6.6,19.7,12.2,26.3,16.7c38.4-10.7,78.1-16.1,119-16.1s80.6,5.4,119,16.1l23.6-14.9
		c16.1-9.9,35.1-19,57-27.3c21.9-8.3,38.6-10.5,50.2-6.8c18.6,46.7,20.2,88.8,4.9,126.4c32.6,35.1,49,77.7,49,127.7
		c0,35.1-4.3,66.2-12.7,93.3c-8.5,27.1-19.4,48.7-32.8,65.1c-13.4,16.3-30.2,30.1-50.2,41.2c-20,11.2-39.5,19.2-58.3,24.2
		c-18.8,5-40,8.7-63.5,11.2c21.5,18.6,32.2,47.9,32.2,88v130.8c0,7.4,2.6,13.6,7.8,18.6c5.2,4.9,13.3,6.4,24.5,4.3
		c95.9-31.8,174.1-89.1,234.6-172c60.5-82.8,90.8-176.1,90.8-279.8C1016,465.3,994.7,385.6,952.1,312.7z"/>
</g>
</svg>
