<?xml version="1.0" encoding="utf-8"?>
<!-- Generator: Adobe Illustrator 21.0.0, SVG Export Plug-In . SVG Version: 6.00 Build 0)  -->
<svg version="1.1" id="Camada_1" xmlns="http://www.w3.org/2000/svg" xmlns:xlink="http://www.w3.org/1999/xlink" x="0px" y="0px"
	 viewBox="0 0 1080 1080" style="enable-background:new 0 0 1080 1080;" xml:space="preserve">
<style type="text/css">
	.st0{fill:#9A1334;}
</style>
<g>
	<g>
		<path class="st0" d="M742.7,630c-2.5-8.3-12.7-12.2-23.2-12.2c-10.2,0-20.5,3.9-22.9,12.2l-53.3,173.9c-0.3,1.1-0.6,2.2-0.6,2.8
			c0,8.9,13,14.9,22.7,14.9c6.1,0,10.8-1.9,12.2-7.2l10.5-36.8h63.3l10.5,36.8c1.4,5.3,6.1,7.2,12.2,7.2c9.7,0,22.7-6.4,22.7-14.9
			c0-0.8-0.3-1.7-0.6-2.8L742.7,630z M695.5,749.4l24-84.9l24.1,84.9H695.5z"/>
		<path class="st0" d="M885.5,458.9H621.1V346l85.9-61.4c6.8-4.8,10.8-12.7,10.8-21c0-8.3-4-16.2-10.8-21l-87-62.1
			c-6.8-45.7-46.3-80.9-93.9-80.9H194.5c-52.3,0-94.9,42.6-94.9,94.9v331.7c0,52.3,42.6,94.9,94.9,94.9h264.4V734L373,795.4
			c-6.8,4.8-10.8,12.7-10.8,21s4,16.2,10.8,21l87,62.1c6.8,45.7,46.3,80.9,93.9,80.9h331.7c52.3,0,94.9-42.6,94.9-94.9V553.8
			C980.4,501.5,937.8,458.9,885.5,458.9z M194.5,569.5c-23.9,0-43.3-19.4-43.3-43.3V194.5c0-23.9,19.4-43.3,43.3-43.3h331.7
			c23.9,0,43.3,19.4,43.3,43.3c0,8.3,4,16.2,10.8,21l67.3,48.1l-67.3,48.1c-6.8,4.8-10.8,12.7-10.8,21v126.2h-15.6
			c-52.3,0-94.9,42.6-94.9,94.9v15.7H194.5z M928.8,885.5c0,23.9-19.4,43.3-43.3,43.3H553.8c-23.9,0-43.3-19.4-43.3-43.3
			c0-8.3-4-16.2-10.8-21l-67.3-48.1l67.3-48.1c6.8-4.8,10.8-12.7,10.8-21V553.8c0-23.9,19.4-43.3,43.3-43.3h41.4h0.1h0.1h290.2
			c23.9,0,43.3,19.4,43.3,43.3V885.5z"/>
		<path class="st0" d="M439.6,337.5c8,0,14.5-6.5,14.5-14.6s-6.5-14.6-14.5-14.6h-64.7V273c0-8-6.5-14.6-14.6-14.6
			c-8,0-14.5,6.5-14.5,14.6v35.3h-64.7c-8,0-14.5,6.5-14.5,14.6s6.5,14.6,14.5,14.6h20.1c3.2,30.7,16.5,58.5,36.4,80
			c-16.5,9.9-35.8,15.6-56.4,15.6c-8,0-14.5,6.5-14.5,14.5c0,8,6.5,14.6,14.5,14.6c29.4,0,56.8-9.2,79.3-24.9
			c22.5,15.7,49.8,24.9,79.3,24.9c8,0,14.5-6.5,14.5-14.6c0-8-6.5-14.5-14.5-14.5c-20.6,0-39.9-5.7-56.4-15.6
			c19.9-21.5,33.2-49.3,36.4-80H439.6z M360.3,399.3c-15.9-16.5-26.7-38-29.9-61.8h59.8C387.1,361.3,376.3,382.8,360.3,399.3z"/>
	</g>
</g>
</svg>
