<?xml version="1.0" encoding="utf-8"?>
<!-- Generator: Adobe Illustrator 21.0.0, SVG Export Plug-In . SVG Version: 6.00 Build 0)  -->
<svg version="1.1" id="Camada_1" xmlns="http://www.w3.org/2000/svg" xmlns:xlink="http://www.w3.org/1999/xlink" x="0px" y="0px"
	 viewBox="0 0 1080 1080" style="enable-background:new 0 0 1080 1080;" xml:space="preserve">
<style type="text/css">
	.st0{fill:#9A1334;}
</style>
<path class="st0" d="M540,64C277.1,64,64,277.1,64,540s213.1,476,476,476s476-213.1,476-476S802.9,64,540,64z M418.7,765.8
	c0,9.4-7.6,17-17,17h-72.6c-9.4,0-17-7.6-17-17V461.7c0-9.4,7.6-17,17-17h72.6c9.4,0,17,7.6,17,17V765.8z M365.4,416
	c-38.1,0-68.9-30.9-68.9-68.9s30.9-68.9,68.9-68.9c38.1,0,68.9,30.9,68.9,68.9S403.4,416,365.4,416z M797.9,620v147.2
	c0,8.7-7,15.7-15.7,15.7h-77.9c-8.7,0-15.7-7-15.7-15.7V624.5c0-21.3,6.2-93.3-55.6-93.3c-48,0-57.7,49.3-59.7,71.4v164.5
	c0,8.7-7,15.7-15.7,15.7h-75.3c-8.7,0-15.7-7-15.7-15.7V460.3c0-8.7,7-15.7,15.7-15.7h75.3c8.7,0,15.7,7,15.7,15.7v26.5
	c17.8-26.7,44.2-47.3,100.5-47.3C798.6,439.5,797.9,556,797.9,620z"/>
</svg>
