<?xml version="1.0" encoding="utf-8"?>
<!-- Generator: Adobe Illustrator 21.0.0, SVG Export Plug-In . SVG Version: 6.00 Build 0)  -->
<svg version="1.1" id="Camada_1" xmlns="http://www.w3.org/2000/svg" xmlns:xlink="http://www.w3.org/1999/xlink" x="0px" y="0px"
	 viewBox="0 0 1080 1080" style="enable-background:new 0 0 1080 1080;" xml:space="preserve">
<style type="text/css">
	.st0{fill:#9A1334;}
</style>
<g>
	<path class="st0" d="M266.7,830h-33.5c-22.7,0-41.3-18.6-41.3-41.3v-72.2c0-22.7,18.6-41.3,41.3-41.3h33.5
		c22.7,0,41.3,18.6,41.3,41.3v72.2C308,811.4,289.4,830,266.7,830z"/>
	<path class="st0" d="M464.2,830h-41.7c-20.4,0-37.2-16.7-37.2-37.2v-235c0-20.4,16.7-37.2,37.2-37.2h41.7
		c20.4,0,37.2,16.7,37.2,37.2v235C501.3,813.3,484.6,830,464.2,830z"/>
	<path class="st0" d="M649.2,830h-25c-25,0-45.5-20.4-45.5-45.5v-373c0-25,20.4-45.5,45.5-45.5h25c25,0,45.5,20.4,45.5,45.5v373
		C694.6,809.5,674.2,830,649.2,830z"/>
	<path class="st0" d="M837.1,830h-14.2c-28,0-50.9-22.9-50.9-50.9V300.9c0-28,22.9-50.9,50.9-50.9h14.2c28,0,50.9,22.9,50.9,50.9
		v478.3C888,807.1,865.1,830,837.1,830z"/>
</g>
</svg>
