<?xml version="1.0" encoding="utf-8"?>
<!-- Generator: Adobe Illustrator 21.0.0, SVG Export Plug-In . SVG Version: 6.00 Build 0)  -->
<svg version="1.1" id="Camada_1" xmlns="http://www.w3.org/2000/svg" xmlns:xlink="http://www.w3.org/1999/xlink" x="0px" y="0px"
	 viewBox="0 0 1080 1080" style="enable-background:new 0 0 1080 1080;" xml:space="preserve">
<style type="text/css">
	.st0{fill:#FFFFFF;}
</style>
<g>
	<g>
		<g>
			<path class="st0" d="M714.9,474.7c0-20-16.2-36.3-36.3-36.3H305.1c-20,0-36.3,16.2-36.3,36.3c0,20,16.2,36.3,36.3,36.3h373.5
				C698.7,511,714.9,494.8,714.9,474.7z"/>
			<path class="st0" d="M305.1,583.5c-20,0-36.3,16.2-36.3,36.3s16.2,36.3,36.3,36.3H532c20,0,36.3-16.2,36.3-36.3
				S552,583.5,532,583.5H305.1z"/>
			<path class="st0" d="M390.3,931.6H269.1c-40,0-72.5-32.5-72.5-72.5V220.9c0-40,32.5-72.5,72.5-72.5h445.8
				c40,0,72.5,32.5,72.5,72.5v223c0,20,16.2,36.3,36.3,36.3c20,0,36.3-16.2,36.3-36.3v-223c0-80-65.1-145.1-145.1-145.1H269.1
				c-80,0-145.1,65.1-145.1,145.1v638.2c0,80,65.1,145.1,145.1,145.1h121.3c20,0,36.3-16.2,36.3-36.3S410.4,931.6,390.3,931.6z"/>
			<path class="st0" d="M924.2,600.9c-42.4-42.4-111.4-42.4-153.8,0L571.3,799.5c-4.2,4.2-7.3,9.4-9.1,15.1l-43.4,142.7
				c-3.8,12.7-0.5,26.4,8.7,35.9c6.9,7.1,16.3,10.9,26,10.9c3.2,0,6.5-0.4,9.7-1.3l146.4-40.5c6-1.7,11.5-4.9,15.9-9.3l198.7-198.3
				C966.6,712.3,966.6,643.3,924.2,600.9z M681,895l-73.6,20.4l21.5-70.9l134.3-134l51.3,51.3L681,895z M872.9,703.4l-7,7
				l-51.3-51.3l7-7c14.1-14.1,37.1-14.1,51.3,0C887,666.3,887,689.3,872.9,703.4z"/>
			<path class="st0" d="M678.6,293.4H305.1c-20,0-36.3,16.2-36.3,36.3s16.2,36.3,36.3,36.3h373.5c20,0,36.3-16.2,36.3-36.3
				S698.7,293.4,678.6,293.4z"/>
		</g>
	</g>
</g>
</svg>
