<?xml version="1.0" encoding="utf-8"?>
<!-- Generator: Adobe Illustrator 21.0.0, SVG Export Plug-In . SVG Version: 6.00 Build 0)  -->
<svg version="1.1" id="Camada_1" xmlns="http://www.w3.org/2000/svg" xmlns:xlink="http://www.w3.org/1999/xlink" x="0px" y="0px"
	 viewBox="0 0 1080 1080" style="enable-background:new 0 0 1080 1080;" xml:space="preserve">
<style type="text/css">
	.st0{fill:#FFFFFF;}
</style>
<g>
	<g>
		<g>
			<path class="st0" d="M540,119.1c-232.1,0-420.9,188.8-420.9,420.9S307.9,960.9,540,960.9S960.9,772.1,960.9,540
				S772.1,119.1,540,119.1z M540,889.8c-192.9,0-349.8-156.9-349.8-349.8S347.1,190.2,540,190.2S889.8,347.1,889.8,540
				S732.9,889.8,540,889.8z"/>
		</g>
	</g>
	<g>
		<g>
			<path class="st0" d="M730.9,579.6h-166V331.5c0-19.6-15.9-35.6-35.6-35.6c-19.6,0-35.6,15.9-35.6,35.6v283.7
				c0,19.6,15.9,35.6,35.6,35.6c0.4,0,0.8,0,1.2-0.1c0.4,0,0.8,0.1,1.2,0.1h199.2c19.6,0,35.6-15.9,35.6-35.6
				C766.5,595.5,750.5,579.6,730.9,579.6z"/>
		</g>
	</g>
</g>
</svg>
