<?xml version="1.0" encoding="utf-8"?>
<!-- Generator: Adobe Illustrator 21.0.0, SVG Export Plug-In . SVG Version: 6.00 Build 0)  -->
<svg version="1.1" id="Camada_1" xmlns="http://www.w3.org/2000/svg" xmlns:xlink="http://www.w3.org/1999/xlink" x="0px" y="0px"
	 viewBox="0 0 1080 1080" style="enable-background:new 0 0 1080 1080;" xml:space="preserve">
<style type="text/css">
	.st0{fill:#9A1334;}
</style>
<g>
	<g>
		<path class="st0" d="M660.8,429.2c-9.2,0-18,3.5-24.9,9.8L503,564.5l-58.3-60c-6.8-7-16-10.9-25.8-10.9c-9.4,0-18.3,3.6-25.1,10.2
			c-14.2,13.8-14.5,36.6-0.7,50.8l83.2,85.4c6.9,6.9,16,10.7,25.8,10.7c9.2,0,17.9-3.4,24.8-9.8l158.7-149.7
			c7-6.6,11-15.5,11.3-25.1c0.3-9.6-3.2-18.7-9.9-25.8C680.2,433.3,670.6,429.2,660.8,429.2z"/>
		<path class="st0" d="M540,225c-173.7,0-315,141.3-315,315s141.3,315,315,315s315-141.3,315-315S713.7,225,540,225z M540,783
			c-134,0-243-109-243-243s109-243,243-243s243,109,243,243S674,783,540,783z"/>
		<path class="st0" d="M1030.1,520.3l-62.2-94.7l6.3-113.4c0.8-14.4-7-27.8-19.8-34.2l-101-51.1l-51.1-101.1
			c-6.3-12.2-18.6-19.7-32.3-19.7l-1.4,0l-114.1,6.2l-94.7-62.6c-5.9-3.9-12.7-5.9-19.8-5.9c-7.1,0-13.9,2.1-19.8,5.9l-94.7,62.5
			l-113.4-6.3l-2.1-0.1c-13.7,0-26,7.6-32.1,19.8l-51.1,101l-101.1,51.1c-12.6,6.5-20.4,19.8-19.7,34.1l6.3,113.4L49.9,520
			c-7.9,12-7.9,27.6,0,39.6l62.4,94.9L106,767.9c-0.8,14.4,7,27.8,19.8,34.2l101,51.1l51.1,101.1c6.2,12.2,18.6,19.7,32.3,19.7
			l1.4,0l113.9-6.3l94.4,62.4c5.9,4.1,12.9,6.2,20,6.2s14.1-2.1,19.8-6.1l94.7-62.5l113.4,6.3l2.1,0.1c13.7,0,26-7.6,32.1-19.8
			l51.1-101l101.1-51.1c12.6-6.5,20.4-19.8,19.7-34.1l-6.3-113.4l62.5-94.7C1038,547.8,1038,532.3,1030.1,520.3z M900.9,748.7
			l-90.5,45.7c-6.8,3.4-12.5,9.1-15.9,15.9l-45.7,90.5l-101.9-5.6l-1.7,0c-7,0-13.8,1.9-20.2,5.9l-84.9,56l-84.7-55.9
			c-5.9-4-12.8-6.1-20-6.2H434l-102.3,5.7L286,810.1c-3.5-6.9-9.1-12.5-15.9-15.9l-90.7-45.5l5.6-102.1c0.3-7.4-1.6-14.7-5.8-21.6
			l-56-84.9l55.9-84.7c4.5-6.6,6.6-14.7,6-22.1l-5.6-101.9l90.5-45.7c6.8-3.4,12.5-9.1,15.9-15.9l45.7-90.6l101.9,5.6l1.6,0
			c7,0,13.8-1.9,20.3-5.9l84.9-56l84.7,55.9c5.8,4,12.6,6.1,19.6,6.1c1,0,104.4-5.7,104.4-5.7l45.7,90.5c3.4,6.9,9.1,12.5,15.9,15.9
			l90.5,45.7l-5.6,102.2c-0.3,7.4,1.6,14.7,5.8,21.6l56,84.9l-55.9,84.7c-4.5,6.6-6.6,14.6-6,22.1L900.9,748.7z"/>
	</g>
</g>
</svg>
