<?xml version="1.0" encoding="utf-8"?>
<!-- Generator: Adobe Illustrator 21.0.0, SVG Export Plug-In . SVG Version: 6.00 Build 0)  -->
<svg version="1.1" id="Camada_1" xmlns="http://www.w3.org/2000/svg" xmlns:xlink="http://www.w3.org/1999/xlink" x="0px" y="0px"
	 viewBox="0 0 1080 1080" style="enable-background:new 0 0 1080 1080;" xml:space="preserve">
<style type="text/css">
	.st0{fill:#9A1334;}
</style>
<path class="st0" d="M540,64C277.1,64,64,277.1,64,540s213.1,476,476,476s476-213.1,476-476S802.9,64,540,64z M767.7,423.2
	c0.2,5,0.3,10.1,0.3,15.2c0,155.2-118.2,334.3-334.3,334.3c-66.4,0-128.1-19.5-180.1-52.8c9.2,1.1,18.5,1.6,28,1.6
	c55,0,105.7-18.8,145.9-50.3c-51.4-1-94.8-34.9-109.8-81.6c7.2,1.4,14.5,2.1,22.1,2.1c10.7,0,21.1-1.4,31-4.1
	c-53.8-10.8-94.3-58.3-94.3-115.2c0-0.5,0-1,0-1.5c15.8,8.8,33.9,14.1,53.2,14.7c-31.5-21.1-52.3-57-52.3-97.8
	c0-21.5,5.8-41.7,15.9-59.1c57.9,71.1,144.5,117.8,242.2,122.8c-2-8.6-3-17.6-3-26.8c0-64.9,52.6-117.5,117.5-117.5
	c33.8,0,64.3,14.3,85.8,37.1c26.8-5.3,51.9-15.1,74.6-28.5c-8.8,27.4-27.4,50.4-51.7,65c23.8-2.8,46.4-9.1,67.5-18.5
	C810.6,386,790.7,406.6,767.7,423.2z"/>
</svg>
