<?xml version="1.0" encoding="utf-8"?>
<!-- Generator: Adobe Illustrator 21.0.0, SVG Export Plug-In . SVG Version: 6.00 Build 0)  -->
<svg version="1.1" id="Camada_1" xmlns="http://www.w3.org/2000/svg" xmlns:xlink="http://www.w3.org/1999/xlink" x="0px" y="0px"
	 viewBox="0 0 1080 1080" style="enable-background:new 0 0 1080 1080;" xml:space="preserve">
<style type="text/css">
	.st0{fill:#9A1334;}
</style>
<g>
	<g>
		<g>
			<path class="st0" d="M866.8,308.6c0-0.3,0-0.5-0.1-0.8c-1-1.5-2.2-2.7-3.3-4.1c-7.5-10.2-15.4-20-23.7-29.4
				c-2.3-2.6-4.6-5.1-6.9-7.7c-8.6-9.2-17.6-18-27.1-26.4c-1.7-1.6-3.4-3.1-5.1-4.7c-23.3-19.9-48.8-37.2-76.1-51.4
				c-1.1-0.6-2.2-1-3.4-1.6c-12.1-6.1-24.5-11.7-37.2-16.6c-2.8-1-5.4-2-8.2-2.8c-11.3-4.1-22.7-7.6-34.4-10.7
				c-3.5-0.9-6.9-1.9-10.4-2.7c-11.5-2.7-22.9-4.7-34.6-6.4c-3.5-0.5-7.1-1.2-10.6-1.6c-30.2-3.6-60.7-3.6-90.8,0
				c-3.5,0.4-7.1,1.1-10.6,1.6c-11.7,1.6-23.3,3.7-34.6,6.4c-3.5,0.8-6.9,1.7-10.4,2.7c-11.7,3-23.1,6.6-34.4,10.7
				c-2.8,0.9-5.4,2-8.2,2.8c-12.7,4.9-25.1,10.4-37.2,16.6c-1.1,0.6-2.2,1-3.4,1.6c-27.3,14.2-52.9,31.3-76.3,51.4
				c-1.7,1.6-3.4,3.1-5.1,4.7c-9.6,8.4-18.6,17.2-27.1,26.4c-2.3,2.5-4.7,5.1-6.9,7.7c-8.4,9.4-16.3,19.3-23.7,29.4
				c-1,1.4-2.2,2.7-3.3,4.1c-0.2,0.3-0.3,0.5-0.3,0.8C114.4,447,114.4,633,213.2,771.4c0.1,0.3,0.2,0.5,0.3,0.8
				c1,1.5,2.2,2.7,3.3,4.1c7.4,10.2,15.4,20,23.7,29.4c2.3,2.6,4.6,5.1,6.9,7.7c8.6,9.2,17.7,18,27.1,26.4c1.7,1.6,3.4,3.1,5.1,4.7
				c23.3,19.9,48.8,37.2,76.1,51.4c1.1,0.6,2.2,1,3.4,1.6c12.1,6.1,24.5,11.7,37.2,16.6c2.8,1,5.4,2,8.2,2.8
				c11.3,4.1,22.7,7.6,34.4,10.7c3.5,0.9,6.9,1.9,10.4,2.7c11.5,2.7,22.9,4.7,34.6,6.4c3.5,0.5,7.1,1.2,10.6,1.6
				c30.2,3.6,60.7,3.6,90.8,0c3.5-0.4,7.1-1.1,10.6-1.6c11.7-1.6,23.3-3.7,34.6-6.4c3.5-0.8,6.9-1.7,10.4-2.7
				c11.7-3,23.2-6.6,34.4-10.7c2.8-0.9,5.4-2,8.2-2.8c12.7-4.9,25.1-10.4,37.2-16.6c1.1-0.6,2.2-1,3.4-1.6
				c27.2-14.2,52.8-31.3,76.1-51.4c1.7-1.6,3.4-3.1,5.1-4.7c9.6-8.4,18.6-17.2,27.1-26.4c2.3-2.5,4.7-5.1,6.9-7.7
				c8.4-9.4,16.3-19.3,23.7-29.4c1-1.4,2.2-2.7,3.3-4.1c0.2-0.3,0.3-0.5,0.3-0.8C965.6,633,965.6,447,866.8,308.6z M834.1,362.7
				c27.4,45.2,43.9,96,48.4,148.6H710.9c-2.1-34.1-7.5-68-16.1-101.1C743.2,401.2,790.2,385.2,834.1,362.7z M613,204.1
				c1.6,0.3,3.1,0.9,4.7,1.3c10.3,2.4,20.5,5.2,30.4,8.6c1.6,0.5,3,1.1,4.5,1.6c9.8,3.5,19.6,7.3,29.1,11.5c1.6,0.8,3.3,1.6,4.9,2.4
				c9.1,4.3,18,9.1,26.7,14.1l5.7,3.5c8.3,5,16.2,10.4,24.1,16.1c2,1.5,4,2.8,6,4.5c7.6,5.7,14.9,11.8,21.9,18.4
				c1.8,1.6,3.7,3.3,5.5,5c7.3,7,14.3,14.3,21.1,21.9c0.9,1,1.8,1.9,2.7,2.8c-38.8,18.5-79.9,31.7-122.2,39.3
				c-19.6-53.9-45.5-105.2-77.1-153C605,202.9,609.1,203.3,613,204.1z M426.6,511.3c2.2-31,7.5-61.7,15.7-91.7
				c32.5,3.9,65.1,5.8,97.8,5.7c32.7,0,65.4-2,97.9-5.9c8.2,30,13.5,60.8,15.6,91.8L426.6,511.3L426.6,511.3z M653.7,568.7
				c-2.2,31-7.5,61.7-15.7,91.7c-32.5-3.9-65.1-5.8-97.8-5.7c-32.7,0-65.4,1.9-97.9,5.7c-8.2-30-13.5-60.7-15.6-91.7H653.7z
				 M540.2,214.9c32.6,46.2,59.4,96.3,79.8,148.9c-26.5,2.8-53.2,4.2-79.9,4.2c-26.7,0-53.3-1.5-79.8-4.2
				C480.9,311.2,507.6,261.1,540.2,214.9z M282.6,313.1c6.7-7.6,13.7-15,21.1-21.9c1.8-1.7,3.7-3.4,5.5-5
				c7.1-6.5,14.4-12.6,21.9-18.4c2-1.6,4-2.8,6-4.5c7.8-5.7,15.8-11.1,24.1-16.1l5.7-3.5c8.7-5.1,17.6-9.8,26.7-14.1
				c1.6-0.8,3.3-1.6,4.9-2.4c9.5-4.3,19.3-8.1,29.1-11.5c1.5-0.5,2.8-1.1,4.5-1.6c9.9-3.3,20-6,30.4-8.6c1.6-0.3,3.1-0.9,4.7-1.2
				c3.9-0.9,8-1.3,12-2c-31.6,47.7-57.4,99.1-77,153c-42.3-7.6-83.4-20.7-122.2-39.3C280.8,315,281.8,314,282.6,313.1z M246.2,362.7
				c43.9,22.4,90.8,38.4,139.3,47.5c-8.5,33.1-13.9,67-16,101.1H197.8C202.2,458.8,218.8,407.9,246.2,362.7z M246.2,717.3
				c-27.4-45.2-43.9-96-48.4-148.6h171.6c2.1,34.1,7.5,68,16.1,101.1C337,678.8,290.1,694.8,246.2,717.3z M467.3,875.9
				c-1.6-0.3-3.1-0.9-4.7-1.3c-10.3-2.4-20.5-5.2-30.4-8.6c-1.6-0.5-3-1.1-4.5-1.6c-9.8-3.5-19.6-7.3-29.1-11.5
				c-1.6-0.8-3.3-1.6-4.9-2.4c-9.2-4.3-18-9.1-26.7-14.1l-5.7-3.5c-8.3-5-16.2-10.4-24.1-16.1c-2-1.5-4-2.8-6-4.5
				c-7.6-5.7-14.9-11.8-21.9-18.4c-1.8-1.6-3.7-3.3-5.5-5c-7.3-7-14.3-14.3-21.1-21.9c-0.9-1-1.8-1.9-2.7-2.8
				c38.8-18.5,79.9-31.7,122.2-39.3c19.6,53.9,45.5,105.2,77.1,153C475.2,877.1,471.2,876.7,467.3,875.9z M540.2,865.1
				c-32.6-46.2-59.4-96.3-79.9-148.9c53-5.7,106.5-5.7,159.6,0l0,0C599.5,768.8,572.6,818.9,540.2,865.1z M797.6,766.9
				c-6.7,7.6-13.7,15-21.1,21.9c-1.8,1.7-3.7,3.4-5.5,5c-7.1,6.5-14.4,12.6-21.9,18.4c-2,1.6-4,3-6,4.5
				c-7.8,5.7-15.8,11.1-24.1,16.1l-5.7,3.5c-8.6,5.1-17.5,9.8-26.7,14.1c-1.6,0.8-3.3,1.6-4.9,2.4c-9.5,4.3-19.3,8.1-29.1,11.5
				c-1.5,0.5-2.8,1.1-4.5,1.6c-9.9,3.3-20,6-30.4,8.6c-1.6,0.3-3.1,0.9-4.7,1.2c-3.9,0.9-8,1.3-12,2c31.6-47.8,57.5-99.1,77.1-153
				c42.3,7.6,83.4,20.7,122.2,39.3C799.5,765,798.5,766,797.6,766.9z M834.1,717.3c-43.9-22.4-90.8-38.4-139.3-47.5
				c8.5-33.1,13.9-67,16-101.1h171.6C878,621.2,861.5,672.1,834.1,717.3z"/>
		</g>
	</g>
</g>
</svg>
